<svg width="19" height="20" viewBox="0 0 19 20" fill="none" xmlns="http://www.w3.org/2000/svg">
<path fill-rule="evenodd" clip-rule="evenodd" d="M3 1.5C2.30964 1.5 1.75 2.05964 1.75 2.75V4.75C1.75 5.44036 2.30964 6 3 6H14C14.6904 6 15.25 5.44036 15.25 4.75V2.75C15.25 2.05964 14.6904 1.5 14 1.5H3ZM16.75 3.10352V2.75C16.75 1.23122 15.5188 0 14 0H3C1.48122 0 0.25 1.23122 0.25 2.75V4.75C0.25 6.26878 1.48122 7.5 3 7.5H14C15.5188 7.5 16.75 6.26878 16.75 4.75C17.0536 4.97805 17.25 5.34105 17.25 5.75V8C17.25 8.69036 16.6904 9.25 16 9.25H11C9.48122 9.25 8.25 10.4812 8.25 12V12.3535C7.09575 12.68 6.25 13.7412 6.25 15V17.25C6.25 18.7688 7.48122 20 9 20C10.5188 20 11.75 18.7688 11.75 17.25V15C11.75 13.7412 10.9043 12.68 9.75 12.3535V12C9.75 11.3096 10.3096 10.75 11 10.75H16C17.5188 10.75 18.75 9.51878 18.75 8V5.75C18.75 4.49122 17.9043 3.42998 16.75 3.10352ZM9 13.75C8.30964 13.75 7.75 14.3096 7.75 15V17.25C7.75 17.9404 8.30964 18.5 9 18.5C9.69036 18.5 10.25 17.9404 10.25 17.25V15C10.25 14.3096 9.69036 13.75 9 13.75Z" fill="white"/>
</svg>
